# xmcd CD database file
#
# Track frame offsets:
#	150
#	12350
#	24485
#	36310
#	50517
#	64622
#	78710
#	95982
#	110745
#	130400
#	142605
#	154995
#	181822
#	202700
#	215627
#	229280
#	242890
#	256412
#	287940
#
# Disc length: 3997 seconds
#
# Revision: 3
# Processed by: cddbd v1.5.2PL0 Copyright (c) Steve Scherf et al.
# Submitted via: CDex 1.79
#
DISCID=1a0f9b13
DTITLE=The Best Of Bluebird Jazz - Swing 3
DYEAR=1996
DGENRE=Jazz
TTITLE0=Count Basie - Seventh Avenue Express
TTITLE1=Johnny Hodges - Going Out The Back Way
TTITLE2=Fats Waller - She's Tall, She's Tan, She's Terrific
TTITLE3=Illinois Jacquet - Black Velvet
TTITLE4=Jelly Roll Morton - Steamboat Stomp
TTITLE5=Louis Armstrong - Where The Blues Were Born In New Orleans
TTITLE6=Glenn Miller - Moonlight Serenade/Running Wild
TTITLE7=Lionel Hampton - On The Sunny Side Of The Street
TTITLE8=Paul Desmond - Samba de Orpheu
TTITLE9=Artie Shaw And His Orchestra - Diga, Diga Doo
TTITLE10=Django Reinhardt - I Got Rhythym
TTITLE11=Sonny Rollins - The Bridge
TTITLE12=Tito Puente - Birdland After Dark
TTITLE13=Mugsy Spanier - At The Jazz Band Ball
TTITLE14=Coleman Hawkins - Body And Soul
TTITLE15=Fats Waller - Yacht Club Swing
TTITLE16=Benny Goodman - Bugle Call Ring
TTITLE17=Chet Baker - Start Eyes
TTITLE18=Dizzy Gillespie - Anthropology
EXTD=YEAR: 1996
EXTT0=
EXTT1=
EXTT2=
EXTT3=
EXTT4=
EXTT5=
EXTT6=
EXTT7=
EXTT8=
EXTT9=
EXTT10=
EXTT11=
EXTT12=
EXTT13=
EXTT14=
EXTT15=
EXTT16=
EXTT17=
EXTT18=
PLAYORDER=
